<!--?xml version="1.0" encoding="iso-8859-1"?-->
<!-- Generator: Adobe Illustrator 18.1.1, SVG Export Plug-In . SVG Version: 6.00 Build 0)  -->
<svg version="1.1" id="_x31_2" xmlns="http://www.w3.org/2000/svg" xmlns:xlink="http://www.w3.org/1999/xlink" x="0px" y="0px" viewBox="0 0 512 512" style="width: 720px;" xml:space="preserve">
<style type="text/css">
 .st0{fill:#C5C6C6;}
 .st1{fill:#94C85C;}
 .st2{fill:#FFFFFF;}
 .st3{fill:#EC6642;}
 .st4{fill:#94C85C;}
 .st5{fill:#231815;}
</style>

<g id="svgID1">
	<path class="st0" d="M380.248,125.431c4.813-10.574,16.262-31.698,16.262-31.698l24.042,17.105
		c0,0-19.457,56.287-22.932,57.677s-23.73-3.081-25.068-13.354C371.214,144.889,380.248,125.431,380.248,125.431z" style="opacity: 1;"></path>
	<g>
		<path class="st1" d="M328.13,183.109c-7.644-16.678-6.254-6.949-13.154-17.64c-4.585-7.102-15.337-33.783-15.337-33.783
			s9.034-6.949,12.508-9.034c3.474-2.085,8.339-4.864,13.898-2.78c5.559,2.085,14.593,4.169,14.593,4.169l8.59-6.294l5.308-3.435
			c0,0,19.406,4.019,10.46-2.292c-8.946-6.311-25.053-19.945-36.172-18.555s-31.966,18.763-38.22,19.457
			c-6.254,0.695-21.542-18.763-19.457-25.712c0,0,27.796-2.78,33.355-3.475c3.888-0.486,20.173-4.916,17.131-5.459
			c4.169-2.085,25.017-3.475,29.186-1.39c4.169,2.085,8.339,0.695,6.949-2.78c-1.39-3.475-18.068-18.762-18.763-22.932
			c-0.695-4.169,2.085-6.949,3.474-12.508c1.39-5.559-18.762-10.424-23.627-12.508c-4.864-2.085-4.864,2.78-4.864,2.78
			s-4.169-2.78-10.424-9.034c-6.254-6.254-10.424-4.864-10.424-11.813c0-6.949-6.254-6.254-17.373-2.085
			c-11.118,4.169-18.762,15.288-22.932,18.762c-4.169,3.475-12.508,0.695-16.678,0s-3.474-2.085-6.949-1.39
			c-3.475,0.695-7.644,9.034-10.424,11.813c-2.78,2.78-45.169,36.135-53.508,40.305c-8.339,4.169-19.457,11.118-20.847,28.491
			c-14.593,41,0.695,129.253,9.034,138.286l3.475,57.677l11.118,47.254c0,0,0,11.813-1.39,23.627
			c-1.39,11.813,5.559,31.966,9.729,40.999c4.169,9.034,4.864,28.491,2.085,41s-6.949,12.508-15.983,19.457
			c-9.034,6.949-21.542,2.085-29.881,2.085s-13.203,11.118-20.847,17.373c4.169,0.695,13.898-2.78,13.898-2.78
			s-11.118,6.254-25.017,15.983c9.729,0,34.05-7.644,41.694-11.813c7.644-4.169,20.847-9.729,23.627-7.644
			c-3.475-1.39-14.593,14.593-39.61,23.627c11.813,2.085,26.406-4.169,34.745-6.254c8.339-2.085,29.881-6.949,39.61-10.424
			c9.729-3.474,11.813-11.118,11.813-17.373c0-6.254,0.695-26.406-0.695-34.745c-1.39-8.339,8.339-36.135,8.339-41.694
			c0-5.559,0-17.373-2.085-25.017c-2.085-7.644,5.559-35.44,7.644-39.61c2.085-4.169,4.169-4.864,4.169-4.864
			s8.339,21.542,9.034,40.999c-11.118,35.44,3.475,81.999,3.475,84.779s0,8.339,0,16.678c0,8.339,24.322,13.898,31.271,13.898
			c6.949,0,14.593,2.085,25.017,1.39c10.423-0.695,17.373,3.475,20.847,3.475c3.475,0-6.949-3.475-9.729-4.864
			c7.644,1.39,25.712,0.695,18.763-1.39c-6.949-2.085-34.745-10.424-25.017-8.339c9.729,2.085,17.373-1.39,19.457-1.39
			c2.085,0-2.78-0.695-9.034-3.474c-13.898-7.644-40.305-15.288-46.559-17.373c-6.254-2.085-4.17-4.169-4.864-13.898
			s4.864-43.084,11.118-51.423c6.254-8.339,2.085-24.322,0-29.186c-2.085-4.864-2.78-6.949,6.949-19.457
			s23.627-50.728,23.627-55.592c0-4.864-3.474-5.559,5.559-11.118c9.034-5.559,20.152-29.881,26.406-43.779
			c4.471-9.935,1.486-17.028-0.327-24.581C333.093,198.884,332.14,191.857,328.13,183.109z" style="opacity: 1;"></path>
		<path class="st2" d="M223.199,149.058c-7.644,21.542-21.542,97.287,0,121.609c21.542,24.322,4.169,37.525,18.067,36.83
			c13.898-0.695,90.338-35.44,95.897-64.626c5.559-29.186,0.339-55.536-9.973-66.741c-10.312-11.205-25.467-44.444-25.467-44.444
			s-7.644,6.254-22.932,19.457c-15.288,13.203-25.063,11.881-33.379,9.068C237.097,157.397,223.199,149.058,223.199,149.058z" style="opacity: 1;"></path>
		<path class="st2" d="M240.019,105.593c-0.143-8.652,9.586-32.279,22.789-35.059c13.203-2.78,45.606,2.755,48.514,10.411
			c-22.108-0.683-36.701,2.792-38.091,6.266c-1.39,3.474,15.027,25.866,23.149,28.568c-11.336,6.872-28.48,14.658-40.056,7.35
			C244.749,115.821,240.019,105.593,240.019,105.593z" style="opacity: 1;"></path>
		<path class="st3" d="M255.887,71.759c-0.027-6.09-3.502-17.208,3.447-15.124c6.949,2.085,42.389,4.169,54.898,8.339
			c12.508,4.169,36.83,9.729,36.83,9.729s-39.52,4.332-39.739,6.242C306.588,76.093,267.032,63.951,255.887,71.759z" style="opacity: 1;"></path>
		<path class="st1" d="M306.422,153.351c10.589,13.08,33.098,25.851,42.343,22.94
			c9.246-2.911,21.007-12.096,21.007-12.096s-0.052-18.218,3.475-21.542c-0.643,8.49,0.746,19.608,11.865,24.472
			c11.118,4.864,15.983-2.78,18.068-10.424c2.085-7.644,4.864-15.983,6.254-13.203c1.39,2.78,3.371,12.902,1.338,20.002
			c-2.033,7.1-7.592,11.269-12.457,11.964c-4.864,0.695-5.261-0.037-14.301,6.03c-9.041,6.067-23.224,21.766-31.563,22.461
			c-8.339,0.695-12.508-2.78-19.457-4.864C326.045,197.007,306.422,153.351,306.422,153.351z" style="opacity: 1;"></path>
		<g>
			<path class="st5" d="M243.37,27.503c4.275,4.277,9.265,3.563,13.54,0c4.278-3.563,7.128-7.841,9.266-11.403
				c2.138-3.563,16.394-12.827,22.808-10.691c6.414,2.139,4.275,13.543,0.711,22.807c-3.564,9.266,2.139,16.393,3.564,12.829
				c1.425-3.563,4.989-9.978,4.989-15.679c0-5.702,0.713-14.254-1.425-19.243c-2.139-4.989-1.425-7.841-11.404-4.989
				c-9.979,2.85-16.393,4.989-20.671,10.69c-4.275,5.703-9.977,10.692-15.679,11.403C243.37,23.94,243.37,27.503,243.37,27.503z" style="opacity: 1;"></path>
			<path class="st5" d="M283.444,24.787c-4.891-1.631-6.336-0.635-7.286-4.753c-0.95-4.118,2.218-5.383,3.168-4.118
				c0.95,1.268,1.268,0.318,2.85-0.316c1.585-0.634,2.535,0.634,3.485,2.534C286.612,20.034,287.244,26.053,283.444,24.787z" style="opacity: 1;"></path>
			<path class="st5" d="M300.233,16.867c4.118,0.95,14.571,12.037,19.007,18.373c4.435,6.336,13.621,9.821,11.721,8.236
				c-1.9-1.583,0-1.9-4.752-4.118c-4.752-2.218-9.82-10.136-12.037-12.988c-2.218-2.851-4.435-6.653-8.871-9.187
				C300.866,14.649,300.233,16.867,300.233,16.867z" style="opacity: 1;"></path>
			<path class="st5" d="M315.122,21.301c4.957,2.478,21.542,7.919,26.292,10.137c4.753,2.218,6.653,7.286,4.435,10.455
				c-2.218,3.168-4.753,8.868-4.753,8.868s-3.166-3.484-2.533-5.068c0.633-1.584,2.218-5.068,0.315-6.018
				c-1.9-0.95-2.533-2.852-0.315-3.168c2.218-0.318,4.118-0.318,2.533-1.902c-1.582-1.584-1.266-2.534-6.65-3.168
				c-5.386-0.634-8.871-1.901-14.574-3.484C314.172,26.371,314.487,20.985,315.122,21.301z" style="opacity: 1;"></path>
			<path class="st5" d="M230.542,22.887c0,0-6.018,0.632-7.918,3.168c-1.9,2.534-1.418,4.824-2.37,5.458
				c-0.95,0.632-5.217,3.998-6.485,4.632c-1.268,0.634-6.756,3.684-8.339,4.633c-1.584,0.95-10.026,10.095-16.678,13.898
				c-6.653,3.8-23.359,17.922-23.359,17.922s-2.852,3.168-4.118,4.118c-1.268,0.95-3.802,1.266-6.019,2.852
				c-2.218,1.583-1.268,1.584-1.268,1.584s-12.671,10.77-13.303,13.938c-0.635,3.168,0,9.187,0.316,13.305
				c0.316,4.119,0,2.852-0.95,6.019c-0.952,3.168-0.634,2.218-2.852,4.435c-2.218,2.218-1.9,18.055-1.9,20.273v14.255
				c0,2.535-0.634,5.068-1.268,14.571c-0.634,9.503,7.285,52.27,10.771,61.139c1.582,4.03,3.72,13.112,7.921,19.641
				c1.922,2.99,4.164,5.577,6.349,7.814c0.187-1.425,0.372-2.85,0.584-4.267c-0.133-1.63-0.143-3.257,0.026-4.875
				c-4.274-9.265-18.875-46.817-17.952-66.252c0.44-9.227-0.133-47.479,2.085-56.982s3.271-23.658,8.339-34.745
				c5.068-11.086,18.306-8.902,23.06-14.288c4.75-5.386,39.808-36.724,44.242-37.992c4.434-1.268,3.802-3.168,6.652-6.336
				c2.851-3.168,6.336,0,9.503-2.218c3.168-2.218,4.435-6.652,4.435-10.77C240.045,13.699,234.027,21.301,230.542,22.887z" style="opacity: 1;"></path>
			<path class="st5" d="M303.344,132.804c2.852,9.978,12.117,32.785,19.957,36.35c7.839,3.564-1.425,2.852,2.138,6.414
				c3.564,3.564,7.127,4.277,8.553,7.839c1.425,3.564,12.116,40.625,9.266,50.603c-2.851,9.978-4.278,14.968-8.553,19.243
				c-4.275,4.278-7.839,7.841-9.979,11.405c-2.137,3.563-2.137,4.988-8.552,8.552c-6.414,3.564-7.128,2.85-11.404,4.989
				c-4.277,2.139-4.989,4.275-11.403,9.264c-6.416,4.989-16.393,3.564-13.541,2.852c2.85-0.712,14.966-7.839,17.818-9.977
				c2.85-2.139,3.563-5.703,8.552-7.841c4.989-2.138,7.127-4.277,9.266-5.702c2.138-1.425,2.139-0.714,4.275-5.702
				c2.139-4.988,8.553-12.116,8.553-12.116s4.989-8.553,4.989-11.403c0-2.85,3.719-8.354,3.719-13.343s-5.7-22.094-7.125-27.796
				c-1.426-5.702-5.858-15.166-10.136-18.729c-4.275-3.564-0.486-7.249-4.761-12.238c-4.275-4.989-7.128-9.979-8.553-12.117
				c-1.425-2.136-10.918-16.983-10.918-16.983L303.344,132.804z" style="opacity: 1;"></path>
			<path class="st5" d="M227.374,53.613c6.653,1.266,10.454,3.168,11.403,2.218c0.95-0.951,6.653-7.919,18.691-8.869
				c12.037-0.95,23.758,1.9,26.609,2.85c2.853,0.95,8.553-1.268,2.853-1.268c-5.703,0-8.871-2.85-13.621-3.168
				c-4.753-0.316-16.789-2.218-24.71,1.268c-7.92,3.486-9.503,3.802-13.304,4.752c-3.803,0.95-6.653-0.634-8.553-0.634
				C224.84,50.762,227.374,53.613,227.374,53.613z" style="opacity: 1;"></path>
			<path class="st5" d="M252.716,53.613c4.436,0.95,14.889,3.167,19.007,3.484c4.118,0.318,41.816,5.703,49.102,9.187
				c7.286,3.484,19.639,6.019,25.657,6.969c6.021,0.95,4.753-1.585-0.95-8.553c-5.7-6.969-11.403-18.691-13.304-21.858
				c-1.9-3.166-4.435-12.037-0.635-5.702c3.803,6.336,6.021,11.087,9.189,14.889c3.168,3.802,4.433,6.968,5.068,7.919
				c0.632,0.95,5.068,6.969,5.068,6.969s2.852,5.068,4.753,5.702c1.9,0.634,3.8-0.001,1.266-3.168
				c-2.534-3.168-5.702-7.602-6.337-8.87c-0.632-1.268-0.632-1.901,4.753,3.168c5.385,5.068,5.385,10.453,8.553,12.671
				c3.168,2.218,1.268,4.435-0.634,5.068c-1.902,0.634-5.702-0.95-5.702-0.95s0,2.85-2.535,2.218
				c-2.533-0.634-2.533-0.95-4.75-2.218c-2.218-1.268-7.603-5.702-10.454-6.018c-2.853-0.318-28.828-6.971-39.915-8.871
				c-11.087-1.9-25.976-4.435-31.994-3.801c-6.019,0.634-6.337,0.951-8.553,0C257.152,60.899,252.716,53.613,252.716,53.613z" style="opacity: 1;"></path>
			<path class="st5" d="M259.052,66.918c3.802,0.318,15.521-1.585,24.075,0.632c8.553,2.218,12.671,3.169,19.957,7.287
				c7.288,4.118,8.555,7.287,6.337,6.652c-2.218-0.634-2.534-0.634-7.602-3.485c-5.071-2.85-14.889-6.968-21.225-6.968
				s-10.139,0.317-16.789,0.95c-6.653,0.634-8.553,2.218-9.821,0.318c-1.268-1.901,0.316-3.803-1.268-7.603
				c-1.583-3.802-0.95-11.721,0-11.087c0.95,0.634,3.486,3.802,3.486,6.02C256.202,61.849,259.052,66.918,259.052,66.918z" style="opacity: 1;"></path>
			<path class="st5" d="M339.832,67.868c-3.803-1.265-3.168-6.652-4.119-7.602c-0.95-0.95,1.584,0.001,3.802,1.584
				c2.218,1.584,4.436,4.118,3.168,5.386C341.414,68.504,339.832,67.868,339.832,67.868z" style="opacity: 1;"></path>
			<path class="st5" d="M318.922,29.222c1.903,0.95,6.971,0.634,5.071,2.218c-1.902,1.583-0.95,3.484-3.168,1.9" style="opacity: 1;"></path>
			<path class="st5" d="M168.641,81.489c6.812,2.725,3.563-1.427,3.563,4.275c0,5.703,3.564,9.266-1.425,9.978
				c-4.989,0.714-7.127,1.425-11.403,2.85c-4.277,1.426-6.414-4.988-4.989-7.84C155.811,87.904,165.077,80.064,168.641,81.489z" style="opacity: 1;"></path>
			<path class="st5" d="M184.319,82.202c-3.563,0-4.989-5.702,0-7.841c4.989-2.138,9.978-2.138,8.553,2.139
				C191.448,80.775,184.319,82.202,184.319,82.202z" style="opacity: 1;"></path>
			<path class="st5" d="M203.564,59.395c6.414-1.427,2.85,2.138,0.713,5.702c-2.139,3.564-1.425,2.85-4.989,2.85
				c-3.564,0-12.116-2.85-9.264-4.275C192.873,62.246,203.564,59.395,203.564,59.395z" style="opacity: 1;"></path>
			<path class="st5" d="M150.109,159.889c5.738-1.914,11.403-7.84,12.117-4.278c0.712,3.564-2.139,6.416,3.563,9.267
				c5.702,2.85,3.563,9.264,0,10.69c-3.563,1.425-9.978-2.85-9.978-2.85s-2.138,0.712-4.275,1.425
				C149.396,174.855,145.833,161.314,150.109,159.889z" style="opacity: 1;"></path>
			<path class="st5" d="M176.48,156.325c-5.702-0.714-3.564-10.691-3.564-10.691s0.712,4.988,4.989,6.414
				C182.182,153.475,176.48,156.325,176.48,156.325z" style="opacity: 1;"></path>
			<path class="st5" d="M154.386,137.082c0-5.429-4.275-9.266-1.425-9.978c2.85-0.714,4.989-2.852,6.414-4.989
				c1.425-2.139,3.563-4.989,5.702-4.989c2.137,0,2.137,4.277,2.137,9.978c0,5.701-4.988,7.127-4.988,7.127
				S154.386,142.071,154.386,137.082z" style="opacity: 1;"></path>
			<path class="st5" d="M162.226,108.572c2.138-3.564,2.85-7.127,6.414-3.564c3.563,3.564,2.138,6.414-0.714,6.414
				C165.077,111.422,162.226,108.572,162.226,108.572z" style="opacity: 1;"></path>
			<path class="st5" d="M160.087,203.364c-7.734-1.289-10.691-4.989-8.552-6.414c2.138-1.425,4.988-7.839,4.988-7.839
				s0.714,2.85,4.277,4.275C164.364,194.811,164.364,204.078,160.087,203.364z" style="opacity: 1;"></path>
			<path class="st5" d="M173.63,209.066c-4.989-3.563,0.711-11.404,0.711-11.404c7.128-2.138,7.128,3.563,7.841,6.414
				c0.712,2.852,3.564-1.426,0.712,2.852C180.044,211.203,173.63,209.066,173.63,209.066z" style="opacity: 1;"></path>
			<path class="st5" d="M153.673,222.607c5.73-4.297,12.829-2.85,13.541-0.711c0.713,2.136-5.702,6.414-0.712,7.126
				c4.989,0.714,8.553,1.425,9.266,4.277c0.712,2.852-0.713,2.139-4.277,7.127c-3.564,4.989-4.989,1.425-3.564,4.989
				c1.426,3.564,2.219,10.149-2.85,6.414C160.007,248.095,147.971,226.884,153.673,222.607z" style="opacity: 1;"></path>
			<path class="st5" d="M304.351,29.222c0.281,4.217-5.068,10.137-2.535,10.137c2.535,0,5.703-0.316,5.703-0.316
				s-0.318,0.95,1.268,0.316c1.583-0.634,4.118-2.852,4.118-2.852s1.268-1.268,0.633-2.218c-0.633-0.95-2.218-1.266-3.168-2.533
				c-0.95-1.268-1.583-4.119-1.583-4.119S304.033,24.47,304.351,29.222z" style="opacity: 1;"></path>
			<path class="st5" d="M314.487,45.379c-3.168-0.318-3.167-2.535,0-3.168c3.168-0.634,2.535,0.632,3.803,1.266
				C319.556,44.111,314.487,45.379,314.487,45.379z" style="opacity: 1;"></path>
			<path class="st5" d="M263.802,85.716c12.971-4.632,49.108-5.096,45.4-2.317c-3.705,2.78-9.729,0.464-17.141,1.854
				c-7.412,1.39-23.627,4.169-27.796,6.022C260.095,93.128,263.802,85.716,263.802,85.716z" style="opacity: 1;"></path>
			<g>
				<g>
					<path class="st5" d="M200.898,119.622c3.78,1.729,12.848,25.097,21.591,32.726
						c8.743,7.629,15.117,6.915,21.021,8.407c5.904,1.489,4.962,5.899,9.921,5.343c4.958-0.554,36.504-19.863,42.326-25.534
						c5.818-5.672,8.886-10.318,11.56-12.05c2.675-1.732,8.722-18.188,5.657-13.543c-3.067,4.646-5.185,11.337-9.436,11.813
						c-4.251,0.475-4.801,1.973-7.945,5.91c-3.145,3.937-29.449,25.743-38.737,26.066c-9.288,0.322-9.307-2.42-11.592-3.598
						c-2.281-1.181-7.537-0.394-16.042-5.897c-8.505-5.502-13.002-16.546-15.212-23.471c-2.21-6.923-1.857-8.149-9.178-9.481
						C197.51,114.981,200.898,119.622,200.898,119.622z" style="opacity: 1;"></path>
					<path class="st5" d="M203.707,87.035c-4.092,1.892-2.907,6.064,4.962,5.899c7.87-0.16,12.99,0.7,17.085,5.262
						c4.096,4.562,12.763,17.936,16.702,21.082c3.936,3.146,7.32,1.331,6.295-1.424c-1.025-2.754-7.248-7.078-10.635-11.717
						c-3.388-4.644-7.093-12.116-10.95-14.552C223.306,89.146,203.707,87.035,203.707,87.035z" style="opacity: 1;"></path>
					<path class="st5" d="M248.676,123.602c1.656,1.964,4.653,9.52,9.612,8.965c4.957-0.555,8.651-5.988,3.773-4.725
						c-4.881,1.262-5.117-0.865-7.639-4.168C251.9,120.372,248.676,123.602,248.676,123.602z" style="opacity: 1;"></path>
					<path class="st5" d="M264.341,122.565c8.655,0.467,9.365,0.388,14.164-1.585c4.799-1.972-0.941,4.411-5.033,6.3
						C269.382,129.172,264.341,122.565,264.341,122.565z" style="opacity: 1;"></path>
					<path class="st5" d="M288.258,112c4.25-0.476,29.58-17.652,37.841-20.729c8.263-3.074,13.617-0.088,20.703,5.573
						c7.089,5.661,15.751,12.58,18.194,15.177c2.442,2.596,1.973,4.802-1.49,5.903c-3.464,1.106-0.789-0.626-3.309-3.931
						c-2.522-3.305-12.529-15.81-19.848-17.143c-7.32-1.333-7.477-2.749-16.29,1.823c-8.813,4.573-22.576,16.151-29.581,17.652
						C287.474,117.825,288.258,112,288.258,112z" style="opacity: 1;"></path>
					<path class="st5" d="M230.085,104.883c-4.799,1.971-3.768,11.18-3.683,18.342c0.084,7.163,0.248,15.031,3.234,9.677
						c2.986-5.353,2.115-13.146,3.923-16.216c1.808-3.069,5.508-2.049,5.033-6.3C238.116,106.137,230.085,104.883,230.085,104.883z" style="opacity: 1;"></path>
					<path class="st5" d="M214.966,91.515c2.124-0.239,7.869-0.163,6.85,3.534c-1.021,3.701-1.094,9.446-1.094,9.446
						s-3.93,9.763-4.326,6.222c-0.398-3.542,0.856-11.569-2.292-14.087C210.952,94.115,214.966,91.515,214.966,91.515z" style="opacity: 1;"></path>
					<path class="st5" d="M242.846,116.365c2.991,1.099,10.158,7.466,6.855,9.989c-3.304,2.523-6.449,6.459-6.762,10.08
						c-0.311,3.62-1.253,8.028-3.536,6.85c-2.284-1.181-2.21-6.923-1.188-10.624C239.235,128.959,242.846,116.365,242.846,116.365z" style="opacity: 1;"></path>
					<path class="st5" d="M315.678,114.172c-2.487-2.272-2.177-8.043,1.042-4.9c3.223,3.146,9.247,11.398,14.597,10.801
						c5.353-0.601,6.96-3.331,6.819-4.589c-0.14-1.259-0.004-5.737-2.561-8.639c-2.556-2.902,1.542-0.492,4.832,3.284
						c3.293,3.775,6.614,4.997,6.614,4.997s-7.352-11.607-11.379-13.388c-4.024-1.782,0.733-4.866,5.107,0.064
						c4.378,4.929,7.075,9.091,8.72,9.543c1.644,0.456,6.086,0.277,8.605-0.005c2.519-0.282,4.305,4.3,2.697,4.16
						c-1.61-0.136-5.632,0.95-5.632,0.95s1.298,3.042,2.873,5.734c1.576,2.693,4.096,5.281,2.525,8.324
						c-1.57,3.044-3.111,3.537-2.655,1.892c0.451-1.645-2.702-9.9-2.702-9.9s-5.183-6.432-5.952-4.753
						c-0.767,1.682-2.833,3.187-2.586,5.39c0.248,2.204-1.008,5.215-1.008,5.215c-3.92-0.836-4.444-2.69-7.419-3.633
						c-2.976-0.942-4.27-1.116-7.105-0.797c-2.833,0.315-7.522-1.71-10.322-3.95C317.99,117.739,315.678,114.172,315.678,114.172z" style="opacity: 1;"></path>
				</g>
			</g>
			<path class="st5" d="M160.007,248.095c-6.463,16.906,8.362,91.957,10.215,102.148s4.632,13.898,1.853,10.191
				c-2.78-3.707-4.631-19.459-8.339-25.944c-3.705-6.485-9.264-28.723-9.264-41.694s-0.927-15.751-0.927-18.53
				c0-2.78-0.927-10.192-0.927-10.192l-2.78-17.605L160.007,248.095z" style="opacity: 1;"></path>
			<path class="st5" d="M235.808,297.072c0.856,17.346-7.932,37.587-10.172,49.279
				c-2.239,11.691-5.601,33.632-6.132,29.829c-2.072-14.825,0.9-33.065,0.9-33.065s3.601-15.521,5.107-20.659
				c1.507-5.138,2.679-15.621,3.412-22.173C229.654,293.733,235.808,297.072,235.808,297.072z" style="opacity: 1;"></path>
			<path class="st5" d="M279.826,290.315c-1.198,2.481-11.39,8.967-22.508,11.747s-21.311,0.927-20.384,3.707
				c0.927,2.78-1.853,6.486,5.559,5.559c7.412-0.927,15.751-3.705,20.384-5.559c4.632-1.854,14.552-6.783,15.751-11.118
				C279.826,290.315,279.826,290.315,279.826,290.315z" style="opacity: 1;"></path>
			<path class="st5" d="M218.864,368.309c1.021-3.62,5.098-0.927,6.238,9.351c1.021,9.21-2.997,28.567-5.035,35.806
				c-2.041,7.238-4.402,23.837-4.444,30.355c-0.043,6.517-0.733,12.89-2.495,5.251c-1.759-7.638-1.675-20.673,0.269-26.99
				c1.944-6.317,3.594-14.886,4.077-19.493c0.483-4.609,0.369-20.471,1.39-24.09C219.884,374.88,218.864,368.309,218.864,368.309z" style="opacity: 1;"></path>
			<path class="st5" d="M180.413,436.411c-0.926,2.78-0.926,12.044-0.926,12.044s-0.027,0.164-0.071,0.441
				c0.415,2.568,0.761,5.144,1.08,7.724c0.855-2.759,2.476-3.268,3.622,0.174c2.78,8.339,0,0,0-14.824
				c0-14.824-8.339-45.401-11.118-55.592c-2.78-10.191-2.78-22.237-3.707-30.576c0,0-3.705,3.705-4.632,12.044
				s2.78,16.678,2.78,20.384c0,3.707,5.559,12.046,7.412,19.457C176.708,415.1,181.34,433.632,180.413,436.411z" style="opacity: 1;"></path>
			<g>
				<g>
					<g>
						<g>
							<path class="st5" d="M384.014,181.495c-2.143,0.761-6.356,4-9.041,6.067c-2.687,2.063-18.275,13.157-21.224,14.165
								c-2.949,1.01-4.829,2.032-13.643-1.257c-8.814-3.293-13.581-12.577-17.574-16.587c-0.308-0.312-0.612-0.59-0.909-0.855
								c0.728,2.148,1.268,4.338,1.574,6.577c1.374,1.566,2.196,3.738,2.757,4.86c0.794,1.593,3.457,4.263,4.25,6.12
								c0.791,1.854,0.527,1.323,2.936,1.36c2.409,0.035,2.137,0.823,3.2,2.155c1.064,1.331,4.274,1.379,9.624,2.249
								c5.348,0.87,6.42,0.62,8.829,0.398c2.412-0.231,3.215-0.742,5.638-3.08c2.423-2.334,4.301-3.62,5.38-4.92
								c1.079-1.3,2.951-1.276,4.835-3.088c1.883-1.817,0,0,1.334,0.279c1.338,0.286,1.344-0.767,1.893-3.128
								c0.547-2.36,2.154-2.6,4.574-4.145c2.414-1.545-1.693-0.96,3.143-4.309C386.427,181.006,386.16,180.738,384.014,181.495z" style="opacity: 1;"></path>
							<path class="st5" d="M366.74,168.97c-0.387-0.075-0.688-0.193-0.938-0.327c-0.4,0.187-0.779,0.381-1.135,0.596
								c-2.362,1.417,4.497-3.048-0.001-0.593c-4.494,2.452-5.174,3.595-8.15,4.771c-2.976,1.177-4.688,1.285-7.077,2.535
								c-0.349,0.182-0.552,0.284-0.675,0.339c-0.483,1.439-0.871,2.869-0.833,4.274c0.265-0.068,0.531-0.132,0.79-0.204
								c3.033-0.844,9.528-4.575,13.517-6.604c1.728-0.877,5.125-2.442,8.737-3.989C369.558,169.515,368.148,169.244,366.74,168.97z
								" style="opacity: 1;"></path>
							<path class="st5" d="M324.638,184.63c-0.533-3.419,0.915-5.964,0.65-7.956c-0.263-1.994-1.087-4.848,1.174-3.401
								c2.261,1.444,6.503,3.764,6.194,6.036c-0.305,2.271-0.87,1.698-1.181,4.256c-0.31,2.554-0.344,5.683-1.208,6.812
								C329.403,191.506,324.638,184.63,324.638,184.63z" style="opacity: 1;"></path>
							<path class="st5" d="M339.858,198.439c-0.28-1.777,0.077-7.679,0.088-8.817c0.012-1.139,0.616-4.544,1.474-5.103
								c0.86-0.562,4.234,3.456,4.234,3.456s-1.73,2.257-1.748,3.681c-0.013,1.421-1.162,2.548-0.042,4.264
								c1.12,1.72,0.81,4.275,0.81,4.275S340.122,200.149,339.858,198.439z" style="opacity: 1;"></path>
							<path class="st5" d="M354.148,191.758c-0.665-2.537-0.785-6.835,1.466-4.254c2.247,2.585,0.252,2.85,3.643,5.16
								c3.392,2.31,4.521,2.888,4.797,3.746C364.329,197.267,354.968,194.896,354.148,191.758z" style="opacity: 1;"></path>
							<path class="st5" d="M366.712,186.768c-1.82-2.48-2.769-7.424-0.797-5.413c1.969,2.013,2.808,3.442,4.781,5.17
								c1.975,1.725,1.975,1.725,1.975,1.725S367.555,187.912,366.712,186.768z" style="opacity: 1;"></path>
						</g>
					</g>
				</g>
			</g>
			<path class="st5" d="M300.168,282.604c4.169,2.085,4.169,7.644,2.085,13.898c-2.085,6.254-13.203,27.101-15.288,31.271
				c-2.085,4.169-9.034,18.762-12.508,22.932c-3.475,4.169-2.78,8.339-0.695,11.813c2.085,3.474,3.474,5.559,3.474,11.118
				c0,5.559-1.064,10.673-4.864,15.288c-9.729,11.813-11.118,52.118-9.729,62.542c1.39,10.423,8.339,6.254,13.203,6.254
				c4.864,0,29.186,7.644,34.745,11.813c5.559,4.169,9.034,6.254,14.593,6.949c5.559,0.695,4.864-2.78,0.695-2.78
				c-4.169,0-11.402-4.034-11.402-4.034c-11.896-11.114-45.197-13.002-46.807-21.446c-1.607-8.443,0.871-52.149,7.47-58.04
				c6.596-5.89,3.38-22.776,3.38-22.776s-10.052-6.834,10.334-34.909c20.383-28.076,20.288-57.276,20.288-57.276" style="opacity: 1;"></path>
			<path class="st5" d="M215.389,461.195c3.475,14.593,2.085,37.525-20.152,37.525s-24.322,3.474-24.322,3.474
				s4.864-7.644,15.983-7.644s22.237-4.169,22.932-9.034c0.695-4.864,1.39-15.983,1.39-25.017c0-9.034,2.78-12.508,3.475-9.034
				C215.389,454.94,215.389,461.195,215.389,461.195z" style="opacity: 1;"></path>
			<path class="st5" d="M169.525,486.906c-9.034,1.39-22.237,18.068-36.83,22.932c-14.593,4.864-14.593,0-14.593,0
				s2.78-4.169,6.949-3.475c4.169,0.695,7.644,1.39,12.508-2.085C142.424,500.804,160.492,486.906,169.525,486.906z" style="opacity: 1;"></path>
			<path class="st5" d="M163.966,486.211c-12.508,2.78-34.05,14.593-54.898,20.152c-20.847,5.559-21.542,0.695-17.373,0
				c4.17-0.695,25.017-9.729,31.271-15.288c5.559-2.085,1.39,2.085-0.695,3.475s-18.762,9.034-15.983,9.034
				c2.78,0,23.627-6.949,32.661-11.118c9.034-4.169,20.847-9.034,26.406-9.729C170.915,482.042,163.966,486.211,163.966,486.211z" style="opacity: 1;"></path>
			<path class="st5" d="M164.661,500.109c-10.424,2.085-28.491,11.813-31.966,9.729
				c-3.475-2.085,7.644,2.085,17.373-2.085c9.729-4.169,17.373-4.864,17.373-4.864L164.661,500.109z" style="opacity: 1;"></path>
			<path class="st5" d="M179.254,462.585c0,4.169-17.373,15.983-33.355,13.203c-15.983-2.78-22.237,8.339-32.661,15.288
				s-10.424,0.695-4.864-0.695c5.559-1.39,10.424-7.644,15.288-11.813c4.864-4.169,19.457-6.949,25.712-6.254
				c6.254,0.695,19.457,0,22.932-6.949C175.78,458.415,179.254,462.585,179.254,462.585z" style="opacity: 1;"></path>
			<path class="st5" d="M127.831,486.906c8.339-2.78,27.101-6.254,16.678-2.78c-10.424,3.475-14.593,6.949-21.542,6.949
				C116.018,491.076,127.831,486.906,127.831,486.906z" style="opacity: 1;"></path>
			<path class="st5" d="M234.152,330.32c3.244,11.118,4.169,22.701,5.559,30.113c1.39,7.412,1.854,13.434,0,9.264
				c-1.853-4.169-5.558-24.091-7.875-29.186c-2.317-5.095-0.464-3.705-0.464-7.412S234.152,330.32,234.152,330.32z" style="opacity: 1;"></path>
			<path class="st5" d="M238.321,372.015c-0.926,9.266-3.242,0.927-3.242,7.876c0,6.949-2.78,24.552-2.78,28.722
				c0,4.169,3.244,13.898,3.707,21.774c0.463,7.876,2.78,15.751,3.242,23.627c0.463,7.876,1.39,8.802,0.463,11.118
				c-0.926,2.317-1.851,18.066,8.803,21.31c10.654,3.244,27.332-0.463,29.649,0.927s4.632,0-2.317-1.39
				c-6.949-1.39-21.773-2.317-25.017-3.707c-3.242-1.39-6.254-7.412-4.864-11.581c1.39-4.169,4.171-7.876,2.318-9.729
				c-1.854-1.853-6.488-18.762-6.488-20.615c0-1.853-0.695-17.837-2.085-19.69c-1.39-1.853-2.315-11.117-2.315-12.971
				s-0.463-12.046,0-16.215c0.463-4.169,2.315-10.656,2.315-13.898S238.321,372.015,238.321,372.015z" style="opacity: 1;"></path>
			<path class="st5" d="M280.48,483.662c6.949,2.78,17.603,6.951,25.479,6.023c7.876-0.927,13.435,3.707,14.825,2.78
				c1.39-0.927,5.095-1.853-0.927-2.78c-6.022-0.927-17.141-1.39-22.7-2.78c-5.559-1.39-9.729-3.242-14.362-5.559
				C278.163,479.03,280.48,483.662,280.48,483.662z" style="opacity: 1;"></path>
			<path class="st5" d="M284.649,473.934c7.412,6.023,18.53,8.339,35.671,11.118c17.142,2.78,19.922,5.096,22.237,5.096
				c2.317,0,3.244-4.168,0-3.242c-3.242,0.926-5.095-1.39-11.118-2.317c-6.022-0.927-16.678-2.778-25.479-4.632
				c-8.802-1.854-14.824-5.096-17.141-6.486C286.502,472.081,284.649,473.934,284.649,473.934z" style="opacity: 1;"></path>
			<path class="st5" d="M304.569,475.323c2.78,2.317,20.847,1.854,16.678,2.317c-4.169,0.463-4.169-0.463-9.729,0.927
				c-5.559,1.39-6.022-0.463-10.656-1.39C296.23,476.25,304.569,475.323,304.569,475.323z" style="opacity: 1;"></path>
			<path class="st5" d="M315.688,486.442c4.169,0.464,18.532,0.926,16.215,1.39c-2.317,0.464-12.046,0.928-21.774-0.926
				S315.688,486.442,315.688,486.442z" style="opacity: 1;"></path>
			<path class="st5" d="M164.661,279.129c-2.78-11.813,4.864-11.813,8.339-6.254c3.475,5.559,8.339,8.339,12.508,9.034
				c4.169,0.695,8.339,3.474,1.39,4.864c-6.949,1.39-9.034,0-13.203,2.085c-4.17,2.085-6.254,2.78-10.424,0.695
				C159.102,287.468,164.661,279.129,164.661,279.129z" style="opacity: 1;"></path>
			<path class="st5" d="M169.525,311.79c-3.475-0.695-6.949-11.813-0.695-11.118c6.254,0.695,13.203-4.169,11.813,0.695
				c-1.39,4.864-0.695,9.034-4.169,13.898C173,320.129,169.525,311.79,169.525,311.79z" style="opacity: 1;"></path>
			<path class="st5" d="M173,335.417c7.644-1.39,12.508-2.085,11.118,2.085c-1.39,4.169,3.475,8.339-2.78,9.729
				C175.085,348.62,173,335.417,173,335.417z" style="opacity: 1;"></path>
			<path class="st5" d="M178.559,371.552c9.034,0.695,9.034,2.78,6.949,5.559s-1.39,10.424-6.254,6.949
				C174.39,380.586,178.559,371.552,178.559,371.552z" style="opacity: 1;"></path>
			<path class="st5" d="M184.119,318.739c1.39-3.475,7.644-1.39,5.559,2.78s-3.475,4.169-7.644,3.475
				C177.864,324.298,184.119,318.739,184.119,318.739z" style="opacity: 1;"></path>
			<path class="st5" d="M293.914,304.146c-6.254,4.169-6.254,7.644-14.593,8.339c-8.339,0.695-8.339,6.949-4.169,6.949
				c4.169,0,6.949,1.39,9.034,3.474c2.085,2.085,4.864-1.39,8.339-5.559C295.998,313.18,293.914,304.146,293.914,304.146z" style="opacity: 1;"></path>
			<path class="st5" d="M280.016,334.722c-6.254,1.39-6.949,2.085-9.034,2.085c-2.085,0-2.78,0.695-0.695,4.864
				c2.085,4.169,4.169,6.254,6.254,4.169C278.626,343.755,280.016,334.722,280.016,334.722z" style="opacity: 1;"></path>
			<path class="st5" d="M261.948,354.874c2.085-2.78,3.475,0,4.169,2.085c0.695,2.085,0.695,3.474-2.085,4.169
				C261.253,361.823,261.948,354.874,261.948,354.874z" style="opacity: 1;"></path>
			<path class="st5" d="M362.823,108.603c6.872,4.296,14.593,9.034,22.237,6.254c7.644-2.78,4.17,5.559,0.695,6.949
				c-3.475,1.39-6.949-1.39-11.813-3.474c-4.864-2.085-10.888-1.474-15.867-6.991C353.095,105.823,335.027,91.23,362.823,108.603z" style="opacity: 1;"></path>
			<path class="st5" d="M397.311,89.766c0,0-5.471,3.127-8.599,10.164c-3.127,7.036-20.329,53.95-20.329,53.95
				s2.347,4.691,7.818,6.254c5.475,1.564,5.475-2.346,5.475-2.346s-10.166,1.565-7.819-3.908
				c2.028-4.733,17.496-46.278,21.649-57.448c0.463-1.241,0.78-2.098,0.928-2.499l-0.275,0.746c0,0,19.136,13.852,22.263,16.196
				c3.13,2.347,3.91-2.344,3.91-2.344L397.311,89.766z M396.51,93.733c0.012-0.035,0.02-0.057,0.02-0.057L396.51,93.733z" style="opacity: 1;"></path>
			<path class="st5" d="M420.768,114.787c0,0-20.577,57.945-20.329,54.729c0.782-10.163-3.521-3.97-3.521-3.97
				l21.503-54.67L420.768,114.787z" style="opacity: 1;"></path>
			<path class="st5" d="M376.201,160.135c9.384,7.037,20.33,7.818,23.457,3.909c3.129-3.909,3.129,3.909,0.782,5.472
				c-2.345,1.565-6.256,3.91-12.51,0c-6.254-3.907-13.293-7.818-15.638-9.381C369.946,158.571,376.201,160.135,376.201,160.135z" style="opacity: 1;"></path>
			<path class="st5" d="M412.162,153.772c0-3.544,4.864-17.373-3.475-20.847c-8.339-3.475-8.339-2.085-11.813-6.254
				c-3.475-4.17-7.644,1.39-3.475,3.474c4.169,2.085,12.508,2.78,14.593,6.949c2.085,4.169,1.39,5.559,0,9.034
				C406.603,149.602,412.162,155.857,412.162,153.772z" style="opacity: 1;"></path>
			<path class="st5" d="M407.992,162.111c0,0-0.695-13.898-5.559-18.762c-4.864-4.864-4.864-4.169-7.644-6.949
				c-2.78-2.78-6.949,0-2.78,3.474c4.169,3.475,9.034,6.254,9.729,10.424c0.695,4.169,2.085,11.118,3.475,15.288
				C406.603,169.755,407.992,162.111,407.992,162.111z" style="opacity: 1;"></path>
			<path class="st5" d="M413.552,156.551c0.695,5.559,0,13.898-4.864,17.373c-4.864,3.475-5.559,2.78-10.423,4.169
				c-4.864,1.39-2.085-5.559,0.695-5.559c2.78,0,10.424,0.695,11.813-9.034S413.552,156.551,413.552,156.551z" style="opacity: 1;"></path>
			<path class="st5" d="M366.298,148.908c0.695-4.169,2.78-8.339,3.474-11.813c0.695-3.475,6.254-1.39,3.475,5.559
				c-2.78,6.949-2.78,6.949-0.695,12.508c2.085,5.559,0,11.118-2.78,9.034C366.993,162.111,366.298,148.908,366.298,148.908z" style="opacity: 1;"></path>
		</g>
	</g>
</g>
</svg>
